#!OML:ASF G:\JayActor3\Patient Classification 1\Patient 1\Session 6\male.ASF
:FULLY-SPECIFIED
:DEGREES
1375
root 8.71568 16.4484 -8.46868 171.373 -46.4768 -174.769
lowerback 9.83812 -2.91002 2.46738
upperback 4.82202 -3.93997 0.122229
thorax -0.645993 -2.05902 -0.84973
lowerneck -2.61078 -4.0727 -1.2035
upperneck 8.53409 -6.62747 9.49629
head 3.69131 -3.13902 3.12086
rclavicle -3.73218e-014 5.1684e-015
rhumerus -38.4983 -7.01404 -79.0022
rradius 28.6955
rwrist 5.68353
rhand -9.99192 -14.3693
rfingers 7.12502
rthumb 15.9914 -43.7292
lclavicle -3.73218e-014 5.1684e-015
lhumerus -31.9036 4.41813 79.2079
lradius 35.3598
lwrist 26.1124
lhand -20.4825 9.25181
lfingers 7.12502
lthumb 5.87402 39.1504
rfemur -6.50836 -8.98133 31.9349
rtibia 26.5903
rfoot -24.5155 -17.046
rtoes 9.17309
lfemur 2.91473 19.7149 -3.57937
ltibia 48.8561
lfoot -6.29539 19.9286
ltoes -0.988723
1376
root 8.68008 16.448 -8.53605 171.306 -45.7993 -174.673
lowerback 9.82668 -2.86589 2.74328
upperback 4.85574 -3.86384 0.158421
thorax -0.616014 -2.01915 -0.975962
lowerneck -2.60136 -4.00075 -1.16038
upperneck 8.4865 -6.52536 9.4737
head 3.66293 -3.0895 3.10945
rclavicle -6.26172e-014 5.1684e-015
rhumerus -38.2975 -6.82711 -79.1219
rradius 28.7952
rwrist 5.68311
rhand -10.0661 -14.2286
rfingers 7.12502
rthumb 15.92 -43.5943
lclavicle -6.26172e-014 5.1684e-015
lhumerus -31.9078 4.79805 79.238
lradius 35.182
lwrist 25.9795
lhand -20.6584 9.24171
lfingers 7.12502
lthumb 5.70416 39.1449
rfemur -5.93625 -8.7432 32.1471
rtibia 26.1671
rfoot -24.3246 -16.7891
rtoes 9.09462
lfemur 1.89739 18.9897 -3.79465
ltibia 50.0136
lfoot -6.59908 18.6567
ltoes -2.30769
1377
root 8.64466 16.4478 -8.6032 171.331 -45.1394 -174.668
lowerback 9.79223 -2.81561 2.94861
upperback 4.88446 -3.78572 0.178693
thorax -0.574862 -1.9785 -1.08064
lowerneck -2.6131 -3.93197 -1.10753
upperneck 8.45876 -6.42873 9.43621
head 3.64486 -3.04166 3.09049
rclavicle 2.62893e-014 -1.19271e-015
rhumerus -38.0829 -6.64122 -79.2462
rradius 28.9097
rwrist 5.67763
rhand -10.1382 -14.1154
rfingers 7.12502
rthumb 15.8506 -43.4866
lclavicle 2.62893e-014 -1.19271e-015
lhumerus -31.9165 5.14368 79.2694
lradius 35.0036
lwrist 25.8565
lhand -20.8048 9.25628
lfingers 7.12502
lthumb 5.56285 39.1633
rfemur -5.4309 -8.51204 32.2909
rtibia 25.8135
rfoot -24.1481 -16.5475
rtoes 8.90474
lfemur 0.836699 18.2415 -4.1271
ltibia 51.0891
lfoot -6.98395 17.5921
ltoes -3.49316
1378
root 8.60925 16.4476 -8.67039 171.441 -44.496 -174.747
lowerback 9.73469 -2.7604 3.08613
upperback 4.90707 -3.70679 0.184046
thorax -0.524054 -1.93763 -1.164
lowerneck -2.64208 -3.8663 -1.05288
upperneck 8.44849 -6.33781 9.39223
head 3.63631 -2.99585 3.06852
rclavicle -1.08338e-014 7.55382e-015
rhumerus -37.8647 -6.43348 -79.3847
rradius 29.0549
rwrist 5.6369
rhand -10.2118 -14.0358
rfingers 7.12502
rthumb 15.7797 -43.4126
lclavicle -1.08338e-014 7.55382e-015
lhumerus -31.9345 5.44725 79.3018
lradius 34.8305
lwrist 25.744
lhand -20.9002 9.29322
lfingers 7.12502
lthumb 5.47069 39.2026
rfemur -4.98317 -8.29098 32.3677
rtibia 25.5151
rfoot -23.9904 -16.309
rtoes 8.62279
lfemur -0.258665 17.4622 -4.56663
ltibia 52.0771
lfoot -7.41785 16.6907
ltoes -4.5107
1379
root 8.57373 16.4478 -8.73789 171.627 -43.8576 -174.902
lowerback 9.64814 -2.69564 3.16161
upperback 4.92866 -3.62099 0.175103
thorax -0.455319 -1.89344 -1.22964
lowerneck -2.68527 -3.8026 -1.00635
upperneck 8.44502 -6.2505 9.35391
head 3.63388 -2.95129 3.04974
rclavicle -4.96962e-016 9.14409e-015
rhumerus -37.6438 -6.20589 -79.5399
rradius 29.2417
rwrist 5.54616
rhand -10.2885 -13.9879
rfingers 7.12502
rthumb 15.7058 -43.3705
lclavicle -4.96962e-016 9.14409e-015
lhumerus -31.9573 5.70003 79.3381
lradius 34.6685
lwrist 25.641
lhand -20.9363 9.34463
lfingers 7.12502
lthumb 5.43588 39.2549
rfemur -4.58037 -8.07419 32.383
rtibia 25.2547
rfoot -23.846 -16.0737
rtoes 8.25457
lfemur -1.37348 16.653 -5.10001
ltibia 52.9711
lfoot -7.8905 15.9217
ltoes -5.36203
1380
root 8.53845 16.4482 -8.80579 171.852 -43.2172 -175.08
lowerback 9.53979 -2.62338 3.20764
upperback 4.94734 -3.52791 0.162064
thorax -0.375801 -1.84552 -1.28464
lowerneck -2.72838 -3.74031 -0.971409
upperneck 8.43355 -6.16465 9.32687
head 3.62988 -2.90762 3.03699
rclavicle -2.45499e-014 2.0276e-014
rhumerus -37.4137 -5.9726 -79.7042
rradius 29.4507
rwrist 5.41455
rhand -10.3666 -13.9466
rfingers 7.12502
rthumb 15.6306 -43.3352
lclavicle -2.45499e-014 2.0276e-014
lhumerus -31.9929 5.89395 79.3797
lradius 34.5285
lwrist 25.5574
lhand -20.9173 9.40794
lfingers 7.12502
lthumb 5.45415 39.3178
rfemur -4.21698 -7.83711 32.3817
rtibia 25.0211
rfoot -23.7292 -15.8532
rtoes 7.85498
lfemur -2.50577 15.8126 -5.67724
ltibia 53.7699
lfoot -8.38611 15.2556
ltoes -6.10649
1381
root 8.50347 16.4488 -8.87417 172.088 -42.5614 -175.251
lowerback 9.41864 -2.54204 3.24463
upperback 4.96402 -3.42368 0.153236
thorax -0.289891 -1.79195 -1.33165
lowerneck -2.77184 -3.678 -0.951182
upperneck 8.41141 -6.07793 9.31285
head 3.62348 -2.86374 3.03153
rclavicle 1.58034e-014 -1.76918e-014
rhumerus -37.1776 -5.72555 -79.8791
rradius 29.6906
rwrist 5.2306
rhand -10.4411 -13.9125
rfingers 7.12502
rthumb 15.5588 -43.3066
lclavicle 1.58034e-014 -1.76918e-014
lhumerus -32.0409 6.02808 79.4291
lradius 34.4104
lwrist 25.4954
lhand -20.8466 9.47148
lfingers 7.12502
lthumb 5.52245 39.3795
rfemur -3.88178 -7.56454 32.3904
rtibia 24.8077
rfoot -23.6508 -15.6357
rtoes 7.50084
lfemur -3.6466 14.9465 -6.2602
ltibia 54.4721
lfoot -8.89577 14.6802
ltoes -6.80961
